<svg width="499" height="166" viewBox="0 0 499 166" fill="none" xmlns="http://www.w3.org/2000/svg">
<rect width="499" height="166" fill="white"/>
<path d="M182.576 64.272C180.912 64.272 179.632 64.768 178.736 65.76C177.84 66.72 177.392 68.112 177.392 69.936V73.44H183.872V76.032H177.392V96H174.176V69.936C174.176 67.28 174.896 65.248 176.336 63.84C177.808 62.4 179.888 61.68 182.576 61.68H183.872V64.272H182.576ZM195.325 96.528C193.437 96.528 191.821 96.224 190.477 95.616C189.165 95.008 187.965 94.016 186.877 92.64L188.941 90.864C189.933 91.984 190.909 92.784 191.868 93.264C192.829 93.712 193.981 93.936 195.325 93.936C197.245 93.936 198.701 93.6 199.693 92.928C200.685 92.256 201.181 91.28 201.181 90C201.181 89.2 200.989 88.56 200.605 88.08C200.221 87.6 199.549 87.184 198.589 86.832C197.628 86.48 196.173 86.128 194.221 85.776C189.741 84.976 187.501 82.832 187.501 79.344C187.501 77.328 188.221 75.76 189.661 74.64C191.133 73.488 193.149 72.912 195.709 72.912C197.533 72.912 199.117 73.232 200.461 73.872C201.837 74.48 202.877 75.376 203.581 76.56L201.517 78.288C200.781 77.328 199.933 76.624 198.973 76.176C198.045 75.728 196.957 75.504 195.709 75.504C194.109 75.504 192.845 75.84 191.917 76.512C191.021 77.184 190.573 78.112 190.573 79.296C190.573 80.352 190.941 81.168 191.677 81.744C192.445 82.32 193.773 82.8 195.661 83.184C197.869 83.664 199.581 84.192 200.797 84.768C202.045 85.312 202.925 86 203.437 86.832C203.981 87.664 204.253 88.72 204.253 90C204.253 92.144 203.485 93.776 201.949 94.896C200.445 95.984 198.237 96.528 195.325 96.528ZM211.873 68.352C211.265 68.352 210.737 68.128 210.289 67.68C209.841 67.232 209.617 66.704 209.617 66.096C209.617 65.488 209.841 64.976 210.289 64.56C210.737 64.112 211.265 63.888 211.873 63.888C212.513 63.888 213.041 64.096 213.457 64.512C213.873 64.928 214.081 65.456 214.081 66.096C214.081 66.736 213.857 67.28 213.409 67.728C212.993 68.144 212.481 68.352 211.873 68.352ZM202.657 104.208H204.913C206.705 104.208 208.033 103.744 208.897 102.816C209.793 101.888 210.241 100.464 210.241 98.544V73.44H213.457V98.544C213.457 101.36 212.769 103.44 211.393 104.784C210.017 106.128 207.857 106.8 204.913 106.8H202.657V104.208ZM227.575 96.528C225.687 96.528 224.071 96.224 222.727 95.616C221.415 95.008 220.215 94.016 219.127 92.64L221.191 90.864C222.183 91.984 223.159 92.784 224.118 93.264C225.079 93.712 226.231 93.936 227.575 93.936C229.495 93.936 230.951 93.6 231.943 92.928C232.935 92.256 233.431 91.28 233.431 90C233.431 89.2 233.239 88.56 232.855 88.08C232.471 87.6 231.799 87.184 230.839 86.832C229.878 86.48 228.423 86.128 226.471 85.776C221.991 84.976 219.751 82.832 219.751 79.344C219.751 77.328 220.471 75.76 221.911 74.64C223.383 73.488 225.399 72.912 227.959 72.912C229.783 72.912 231.367 73.232 232.711 73.872C234.087 74.48 235.127 75.376 235.831 76.56L233.767 78.288C233.031 77.328 232.183 76.624 231.223 76.176C230.295 75.728 229.207 75.504 227.959 75.504C226.359 75.504 225.095 75.84 224.167 76.512C223.271 77.184 222.823 78.112 222.823 79.296C222.823 80.352 223.191 81.168 223.927 81.744C224.695 82.32 226.023 82.8 227.911 83.184C230.119 83.664 231.831 84.192 233.047 84.768C234.295 85.312 235.175 86 235.687 86.832C236.231 87.664 236.503 88.72 236.503 90C236.503 92.144 235.735 93.776 234.199 94.896C232.695 95.984 230.487 96.528 227.575 96.528ZM250.729 96.528C247.721 96.528 245.369 95.776 243.673 94.272C242.009 92.736 241.177 90.592 241.177 87.84V81.6C241.177 78.848 242.009 76.72 243.673 75.216C245.369 73.68 247.721 72.912 250.729 72.912C253.737 72.912 256.073 73.68 257.737 75.216C259.433 76.72 260.281 78.848 260.281 81.6V87.84C260.281 90.592 259.433 92.736 257.737 94.272C256.073 95.776 253.737 96.528 250.729 96.528ZM250.729 93.936C252.745 93.936 254.297 93.408 255.385 92.352C256.505 91.296 257.065 89.792 257.065 87.84V81.6C257.065 79.648 256.505 78.144 255.385 77.088C254.297 76.032 252.745 75.504 250.729 75.504C248.713 75.504 247.145 76.032 246.025 77.088C244.937 78.144 244.393 79.648 244.393 81.6V87.84C244.393 89.792 244.937 91.296 246.025 92.352C247.145 93.408 248.713 93.936 250.729 93.936ZM278.218 72.912C280.49 72.912 282.266 73.6 283.546 74.976C284.826 76.32 285.466 78.192 285.466 80.592V96H282.25V81.072C282.25 79.312 281.818 77.952 280.954 76.992C280.122 76 278.954 75.504 277.45 75.504C275.722 75.504 274.218 76.144 272.938 77.424C271.69 78.704 270.794 80.448 270.25 82.656V96H267.034V77.52C267.034 76.944 266.922 76.48 266.698 76.128C266.506 75.744 266.122 75.312 265.546 74.832L267.658 72.912C268.65 73.456 269.322 74.08 269.674 74.784C270.058 75.456 270.25 76.4 270.25 77.616V78.048C271.05 76.384 272.122 75.12 273.466 74.256C274.842 73.36 276.426 72.912 278.218 72.912ZM294.583 96.528C293.911 96.528 293.335 96.304 292.855 95.856C292.407 95.376 292.183 94.8 292.183 94.128C292.183 93.456 292.407 92.88 292.855 92.4C293.335 91.92 293.911 91.68 294.583 91.68C295.255 91.68 295.815 91.92 296.263 92.4C296.743 92.88 296.983 93.456 296.983 94.128C296.983 94.8 296.743 95.376 296.263 95.856C295.815 96.304 295.255 96.528 294.583 96.528ZM314.584 72.912C316.696 72.912 318.488 73.424 319.96 74.448C321.432 75.44 322.536 76.768 323.272 78.432C324.008 80.096 324.376 81.936 324.376 83.952V85.488C324.376 87.504 324.008 89.344 323.272 91.008C322.536 92.672 321.432 94.016 319.96 95.04C318.488 96.032 316.696 96.528 314.584 96.528C311.096 96.528 308.568 95.28 307 92.784V106.512H303.784V77.52C303.784 76.944 303.672 76.48 303.448 76.128C303.256 75.744 302.872 75.312 302.296 74.832L304.408 72.912C305.24 73.392 305.848 73.92 306.232 74.496C306.648 75.072 306.872 75.792 306.904 76.656C308.6 74.16 311.16 72.912 314.584 72.912ZM321.16 83.952C321.16 81.392 320.504 79.344 319.192 77.808C317.88 76.272 316.136 75.504 313.96 75.504C312.104 75.504 310.616 75.936 309.496 76.8C308.376 77.664 307.544 78.96 307 80.688V88.752C307.544 90.48 308.376 91.776 309.496 92.64C310.616 93.504 312.104 93.936 313.96 93.936C316.136 93.936 317.88 93.168 319.192 91.632C320.504 90.096 321.16 88.048 321.16 85.488V83.952Z" fill="black"/>
</svg>
